<?xml version="1.0"?>
<svg xmlns="http://www.w3.org/2000/svg" viewBox="0 0 64 64" width="512" height="512"><g id="Layer_75" data-name="Layer 75"><path d="M4,57.62a2,2,0,0,1-2-2V8.38a2,2,0,0,1,4,0V55.62A2,2,0,0,1,4,57.62Z"/><path d="M55.63,2H8.38A6.38,6.38,0,0,0,2,8.38V55.63A6.38,6.38,0,0,0,8.38,62H55.63A6.38,6.38,0,0,0,62,55.63h0V8.38h0A6.38,6.38,0,0,0,55.63,2Zm0,4h0A2.38,2.38,0,0,1,58,8.38h0V38.25H42.5V6ZM23,38.25V6H38.5V38.25ZM8.38,58A2.38,2.38,0,0,1,6,55.63V8.38A2.38,2.38,0,0,1,8.38,6H19V58H8.38ZM58,55.63A2.38,2.38,0,0,1,55.63,58H23V42.25H58V55.62Z"/></g></svg>
