<?xml version="1.0" standalone="no"?>
<!DOCTYPE svg PUBLIC "-//W3C//DTD SVG 20010904//EN"
 "http://www.w3.org/TR/2001/REC-SVG-20010904/DTD/svg10.dtd">
<svg version="1.0" xmlns="http://www.w3.org/2000/svg"
 width="20.000000pt" height="20.000000pt" viewBox="0 0 20.000000 20.000000"
 preserveAspectRatio="xMidYMid meet">

<g transform="translate(0.000000,20.000000) scale(0.100000,-0.100000)"
fill="#000000" stroke="none">
<path d="M4 187 c-2 -8 -4 -52 -2 -98 l3 -84 95 0 95 0 0 95 0 95 -93 3 c-71
2 -94 0 -98 -11z m51 -87 c0 -78 -2 -85 -20 -85 -18 0 -20 8 -23 74 -3 86 1
104 25 99 16 -3 18 -15 18 -88z m65 35 c0 -52 -1 -55 -25 -55 -24 0 -25 3 -25
55 0 52 1 55 25 55 24 0 25 -3 25 -55z m68 -2 c3 -51 2 -53 -22 -53 -25 0 -26
3 -26 56 0 52 1 55 23 52 19 -3 22 -10 25 -55z m-3 -93 c0 -23 -4 -25 -57 -28
l-58 -3 0 31 0 31 58 -3 c53 -3 57 -5 57 -28z"/>
</g>
</svg>
