<?xml version="1.0" encoding="UTF-8" standalone="no"?>
<svg
   xmlns:dc="http://purl.org/dc/elements/1.1/"
   xmlns:cc="http://creativecommons.org/ns#"
   xmlns:rdf="http://www.w3.org/1999/02/22-rdf-syntax-ns#"
   xmlns:svg="http://www.w3.org/2000/svg"
   xmlns="http://www.w3.org/2000/svg"
   xmlns:sodipodi="http://sodipodi.sourceforge.net/DTD/sodipodi-0.dtd"
   xmlns:inkscape="http://www.inkscape.org/namespaces/inkscape"
   viewBox="0 0 64 64"
   width="512"
   height="512"
   version="1.1"
   id="svg28"
   sodipodi:docname="section.svg"
   inkscape:version="1.0.2-2 (e86c870879, 2021-01-15)">
  <metadata
     id="metadata34">
    <rdf:RDF>
      <cc:Work
         rdf:about="">
        <dc:format>image/svg+xml</dc:format>
        <dc:type
           rdf:resource="http://purl.org/dc/dcmitype/StillImage" />
        <dc:title></dc:title>
      </cc:Work>
    </rdf:RDF>
  </metadata>
  <defs
     id="defs32" />
  <sodipodi:namedview
     pagecolor="#ffffff"
     bordercolor="#666666"
     borderopacity="1"
     objecttolerance="10"
     gridtolerance="10"
     guidetolerance="10"
     inkscape:pageopacity="0"
     inkscape:pageshadow="2"
     inkscape:window-width="785"
     inkscape:window-height="480"
     id="namedview30"
     showgrid="false"
     inkscape:zoom="6.6858283"
     inkscape:cx="256"
     inkscape:cy="252.30219"
     inkscape:window-x="2209"
     inkscape:window-y="540"
     inkscape:window-maximized="0"
     inkscape:current-layer="Layer_75" />
  <g
     id="Layer_75"
     data-name="Layer 75">
    <path
       id="path25"
       d="m 32.558655,30.111108 h -1.96875 a 0.26583333,0.26583333 0 0 0 -0.265833,0.265833 v 1.96875 a 0.26583333,0.26583333 0 0 0 0.265833,0.265417 h 1.96875 a 0.26583333,0.26583333 0 0 0 0.265417,-0.265417 v 0 -1.96875 0 a 0.26583333,0.26583333 0 0 0 -0.265417,-0.265833 z m 0,0.166667 v 0 a 0.09916667,0.09916667 0 0 1 0.09875,0.09917 v 0 1.244584 h -0.645833 v -1.34375 z m -1.359583,1.34375 v -1.34375 h 0.645833 v 1.34375 z m -0.609167,0.822916 a 0.09916667,0.09916667 0 0 1 -0.09917,-0.09875 v -1.96875 a 0.09916667,0.09916667 0 0 1 0.09917,-0.09917 h 0.4425 v 2.166666 z m 2.0675,-0.09875 a 0.09916667,0.09916667 0 0 1 -0.09875,0.09875 h -1.359583 v -0.65625 h 1.458333 v 0.557084 z"
       style="stroke-width:0.0416667" />
  </g>
</svg>
